<svg viewBox="0 0 28 20" xmlns="http://www.w3.org/2000/svg">
    <g class="bath-icon" stroke="none" stroke-width="1" fill="none" fill-rule="evenodd">
        <g data-svg-id="bath" fill-rule="nonzero">
            <rect  x="0" y="6" width="28" height="3" rx="1.5"></rect>
            <path d="M2,9 C2.25925926,9.44444444 2.64814815,10.5555556 3.16666667,12.3333333 C3.94444444,15 5.11111111,15 6.66666667,15 C7.7037037,15 10.8148148,15 16,15 L16,6 L2,6 L2,9 Z"></path>
            <path d="M26,9 C25.7407407,9.44444444 25.3518519,10.5555556 24.8333333,12.3333333 C24.0555556,15 22.8888889,15 21.3333333,15 L12,15 L12,6 L26,6 L26,9 Z"></path>
            <polygon fill-rule="nonzero" points="7.16794971 13.4452998 8.83205029 14.5547002 6.83205029 17.5547002 5.16794971 16.4452998"></polygon>
            <polygon fill-rule="nonzero" transform="translate(22.000000, 15.500000) scale(-1, 1) translate(-22.000000, -15.500000) " points="22.1679497 13.4452998 23.8320503 14.5547002 21.8320503 17.5547002 20.1679497 16.4452998"></polygon>
            <path d="M5,9.28571429 L3,9.28571429 L3,3.16260866 L3.0298575,3.04317866 C3.51219664,1.11382211 4.62601875,3.33066907e-16 6.28571429,0 C8.05357143,0 9,1.26190476 9,3.28571429 L7,3.28571429 C7,2.26190476 6.80357143,2 6.28571429,2 C5.68162075,2 5.27869129,2.38177214 5,3.41334793 L5,9.28571429 Z" fill-rule="nonzero"></path>
        </g>
    </g>
</svg>
