<svg viewBox="0 0 50 50" version="1.1" xmlns="http://www.w3.org/2000/svg" xmlns:xlink="http://www.w3.org/1999/xlink">
    <defs></defs>
    <g id="icon-filter" class="action-button" stroke="none" stroke-width="1" fill="none" fill-rule="evenodd">
        <path d="M27.6890262,24.5 C28.3550904,21.9121592 30.7042409,20 33.5,20 C36.2957591,20 38.6449096,21.9121592 39.3109738,24.5 L43,24.5 L43,27.5 L39.3109738,27.5 C38.6449096,30.0878408 36.2957591,32 33.5,32 C30.7042409,32 28.3550904,30.0878408 27.6890262,27.5 L7,27.5 L7,24.5 L27.6890262,24.5 Z M22.3109738,35.5 L43,35.5 L43,38.5 L22.3109738,38.5 C21.6449096,41.0878408 19.2957591,43 16.5,43 C13.7042409,43 11.3550904,41.0878408 10.6890262,38.5 L7,38.5 L7,35.5 L10.6890262,35.5 C11.3550904,32.9121592 13.7042409,31 16.5,31 C19.2957591,31 21.6449096,32.9121592 22.3109738,35.5 Z M14.6890262,12.5 C15.3550904,9.91215918 17.7042409,8 20.5,8 C23.2957591,8 25.6449096,9.91215918 26.3109738,12.5 L43,12.5 L43,15.5 L26.3109738,15.5 C25.6449096,18.0878408 23.2957591,20 20.5,20 C17.7042409,20 15.3550904,18.0878408 14.6890262,15.5 L7,15.5 L7,12.5 L14.6890262,12.5 Z M20.5,17 C22.1568542,17 23.5,15.6568542 23.5,14 C23.5,12.3431458 22.1568542,11 20.5,11 C18.8431458,11 17.5,12.3431458 17.5,14 C17.5,15.6568542 18.8431458,17 20.5,17 Z M33.5,29 C35.1568542,29 36.5,27.6568542 36.5,26 C36.5,24.3431458 35.1568542,23 33.5,23 C31.8431458,23 30.5,24.3431458 30.5,26 C30.5,27.6568542 31.8431458,29 33.5,29 Z M16.5,40 C18.1568542,40 19.5,38.6568542 19.5,37 C19.5,35.3431458 18.1568542,34 16.5,34 C14.8431458,34 13.5,35.3431458 13.5,37 C13.5,38.6568542 14.8431458,40 16.5,40 Z"></path>
    </g>
</svg>