<svg viewBox="0 0 50 50" version="1.1" xmlns="http://www.w3.org/2000/svg" xmlns:xlink="http://www.w3.org/1999/xlink">
    <defs>
        <linearGradient x1="50%" y1="0%" x2="50%" y2="100%" id="linear-gradient-icon-search">
            <stop class="stop1" stop-color="#666666" offset="0%"></stop>
            <stop class="stop2" stop-color="#666666" offset="100%"></stop>
        </linearGradient>
    </defs>
     <g id="icon-search" class="action-button" fill="url(#linear-gradient-icon-search)">
        <path d="M23,34 L23,30.2889502 C15.8476028,29.1244815 10.3880357,22.9181257 10.3880357,15.4366197 C10.3880357,7.12551628 17.1255163,0.388035734 25.4366197,0.388035734 C33.7477232,0.388035734 40.4852037,7.12551628 40.4852037,15.4366197 C40.4852037,23.2198061 34.5764619,29.6229319 27,30.4049755 L27,30.4049755 L27,34 L29.0140845,34 L29.0140845,50 L21,50 L21,34 L23,34 Z M26.8131779,26.7323944 C32.4480321,26.0528643 36.8148174,21.2547007 36.8148174,15.4366197 C36.8148174,9.15261468 31.7206248,4.05842207 25.4366197,4.05842207 C19.1526147,4.05842207 14.0584221,9.15261468 14.0584221,15.4366197 C14.0584221,21.2547007 18.4252073,26.0528643 24.0600615,26.7323944 L26.8131779,26.7323944 L26.8131779,26.7323944 Z"></path>
    </g>
</svg>
